#!OML:ASF H:\LiuWeirdWalks\Patient Classification 1\Patient 1\Session 1\male.ASF
:FULLY-SPECIFIED
:DEGREES
544
root 1.17873 18.0499 -20.9828 5.06158 8.35144 5.88953
lowerback 10.4352 -1.40702 -0.758891
upperback -0.265751 -1.6534 4.917
thorax -5.97868 -0.708491 5.88538
lowerneck -20.8119 -0.186108 7.29285
upperneck 15.996 0.178553 -12.8966
head 8.42309 -0.843285 -5.61603
rclavicle 1.98785e-015 -8.26944e-014
rhumerus -11.6465 -29.807 -6.30682
rradius 31.7089
rwrist 1.80775
rhand -22.0921 -5.37677
rfingers 7.12502
rthumb 4.31987 -35.3127
lclavicle 1.98785e-015 -8.26944e-014
lhumerus -23.3099 24.5844 19.0717
lradius 36.1959
lwrist 9.03927
lhand -19.7917 -3.14427
lfingers 7.12502
lthumb 6.54094 26.7347
rfemur -23.8844 -4.90526 6.6823
rtibia 30.2723
rfoot -4.11871 -17.5451
rtoes -4.36332
lfemur 2.74267 -1.6337 -24.1139
ltibia 19.9607
lfoot -6.25846 14.1575
ltoes -14.7168
545
root 1.12802 18.0621 -20.9146 5.00007 8.50838 5.95244
lowerback 10.4741 -1.45989 -0.745991
upperback -0.278148 -1.71761 4.96809
thorax -6.00598 -0.738771 5.94501
lowerneck -20.7807 -0.182471 7.2874
upperneck 16.0549 0.201827 -12.9455
head 8.44031 -0.837542 -5.63122
rclavicle -3.02153e-014 8.26944e-014
rhumerus -11.7036 -29.6602 -6.45767
rradius 31.6759
rwrist 1.72462
rhand -21.9992 -5.36307
rfingers 7.12502
rthumb 4.40951 -35.2972
lclavicle -3.02153e-014 8.26944e-014
lhumerus -23.2295 24.471 19.0855
lradius 36.1231
lwrist 8.96264
lhand -19.7553 -3.12297
lfingers 7.12502
lthumb 6.57602 26.7549
rfemur -23.5577 -4.8242 6.8109
rtibia 30.3222
rfoot -4.11726 -17.7112
rtoes -3.70173
lfemur 2.65761 -1.73564 -23.943
ltibia 20.531
lfoot -6.02509 13.8975
ltoes -14.9777
546
root 1.07677 18.0743 -20.8466 4.92711 8.67172 5.98076
lowerback 10.5133 -1.51583 -0.70689
upperback -0.281214 -1.78259 5.02377
thorax -6.02403 -0.770475 5.99441
lowerneck -20.7436 -0.1876 7.25032
upperneck 16.0935 0.212862 -12.9535
head 8.44818 -0.834937 -5.62704
rclavicle -3.81667e-014 3.97569e-014
rhumerus -11.739 -29.5789 -6.60409
rradius 31.6256
rwrist 1.71108
rhand -21.9215 -5.37619
rfingers 7.12502
rthumb 4.48456 -35.3087
lclavicle -3.81667e-014 3.97569e-014
lhumerus -23.123 24.4029 19.1023
lradius 36.038
lwrist 8.87132
lhand -19.6895 -3.09939
lfingers 7.12502
lthumb 6.63956 26.7765
rfemur -23.2136 -4.71605 6.97956
rtibia 30.3542
rfoot -4.14872 -17.9174
rtoes -3.08537
lfemur 2.56804 -1.83369 -23.7308
ltibia 21.1169
lfoot -5.78919 13.6098
ltoes -15.2293
547
root 1.02561 18.0864 -20.7787 4.84874 8.83594 5.98266
lowerback 10.5366 -1.57178 -0.639472
upperback -0.266218 -1.845 5.07874
thorax -6.01509 -0.802663 6.0249
lowerneck -20.756 -0.204877 7.17035
upperneck 16.1443 0.208742 -12.9123
head 8.46706 -0.838624 -5.60158
rclavicle 1.43125e-014 3.97569e-014
rhumerus -11.7552 -29.6103 -6.74037
rradius 31.5547
rwrist 1.78633
rhand -21.8311 -5.35971
rfingers 7.12502
rthumb 4.57185 -35.2904
lclavicle 1.43125e-014 3.97569e-014
lhumerus -22.9849 24.3888 19.124
lradius 35.9461
lwrist 8.77589
lhand -19.5821 -3.13056
lfingers 7.12502
lthumb 6.74322 26.7421
rfemur -22.86 -4.59894 7.17706
rtibia 30.3762
rfoot -4.23732 -18.1446
rtoes -2.53342
lfemur 2.4779 -1.93953 -23.4918
ltibia 21.7088
lfoot -5.54876 13.3109
ltoes -15.4329
548
root 0.975631 18.0976 -20.7112 4.77611 9.00037 6.00832
lowerback 10.546 -1.62949 -0.58261
upperback -0.247662 -1.91252 5.11783
thorax -5.99408 -0.837655 6.04424
lowerneck -20.7729 -0.212037 7.11737
upperneck 16.1714 0.210342 -12.882
head 8.4794 -0.838883 -5.58305
rclavicle -2.06736e-014 0
rhumerus -11.7673 -29.6585 -6.85845
rradius 31.4932
rwrist 1.85159
rhand -21.7509 -5.37043
rfingers 7.12502
rthumb 4.64933 -35.2994
lclavicle -2.06736e-014 0
lhumerus -22.8391 24.385 19.1457
lradius 35.8671
lwrist 8.72485
lhand -19.4918 -3.14744
lfingers 7.12502
lthumb 6.83043 26.7224
rfemur -22.5035 -4.52835 7.34666
rtibia 30.391
rfoot -4.37943 -18.3398
rtoes -2.07454
lfemur 2.39094 -2.04226 -23.2841
ltibia 22.2943
lfoot -5.2928 12.9978
ltoes -15.5777
549
root 0.926159 18.1087 -20.6436 4.70374 9.15548 6.02083
lowerback 10.5476 -1.68727 -0.513845
upperback -0.232729 -1.97898 5.15281
thorax -5.9732 -0.8725 6.05187
lowerneck -20.7865 -0.21657 7.07869
upperneck 16.215 0.214089 -12.8579
head 8.4969 -0.837959 -5.56951
rclavicle -3.53837e-014 -9.54166e-015
rhumerus -11.7737 -29.6817 -6.96283
rradius 31.4507
rwrist 1.87918
rhand -21.6808 -5.40379
rfingers 7.12502
rthumb 4.71696 -35.3313
lclavicle -3.53837e-014 -9.54166e-015
lhumerus -22.6943 24.3824 19.1613
lradius 35.8007
lwrist 8.70796
lhand -19.4013 -3.15766
lfingers 7.12502
lthumb 6.91775 26.7093
rfemur -22.1495 -4.46838 7.53113
rtibia 30.3986
rfoot -4.56139 -18.5272
rtoes -1.73912
lfemur 2.30907 -2.14152 -23.065
ltibia 22.862
lfoot -5.0169 12.6784
ltoes -15.6562
550
root 0.87736 18.1199 -20.5759 4.62792 9.2926 6.02017
lowerback 10.5469 -1.7415 -0.43437
upperback -0.228506 -2.03942 5.18166
thorax -5.96368 -0.9044 6.04619
lowerneck -20.7934 -0.206447 7.08171
upperneck 16.2765 0.232009 -12.857
head 8.52082 -0.830089 -5.57013
rclavicle -1.31198e-014 5.40694e-014
rhumerus -11.7972 -29.6369 -7.0377
rradius 31.4374
rwrist 1.84114
rhand -21.6218 -5.47012
rfingers 7.12502
rthumb 4.77398 -35.3963
lclavicle -1.31198e-014 5.40694e-014
lhumerus -22.558 24.3474 19.1718
lradius 35.7594
lwrist 8.7311
lhand -19.3566 -3.14641
lfingers 7.12502
lthumb 6.96093 26.7191
rfemur -21.7963 -4.42751 7.73095
rtibia 30.3976
rfoot -4.76806 -18.6852
rtoes -1.52622
lfemur 2.2401 -2.22653 -22.8356
ltibia 23.4019
lfoot -4.7062 12.3607
ltoes -15.7128
551
root 0.829551 18.1306 -20.5081 4.55158 9.40946 6.02327
lowerback 10.5449 -1.79 -0.359428
upperback -0.228041 -2.09317 5.20329
thorax -5.95832 -0.932842 6.03442
lowerneck -20.7835 -0.1889 7.10771
upperneck 16.315 0.256415 -12.8775
head 8.53481 -0.819202 -5.58018
rclavicle -2.78299e-014 -3.18055e-015
rhumerus -11.8236 -29.5438 -7.0845
rradius 31.4477
rwrist 1.75638
rhand -21.5643 -5.5431
rfingers 7.12502
rthumb 4.82953 -35.4681
lclavicle -2.78299e-014 -3.18055e-015
lhumerus -22.4267 24.3257 19.1794
lradius 35.7318
lwrist 8.75477
lhand -19.3176 -3.12795
lfingers 7.12502
lthumb 6.99858 26.7364
rfemur -21.4462 -4.41983 7.92645
rtibia 30.3863
rfoot -4.98073 -18.7989
rtoes -1.43644
lfemur 2.18757 -2.30007 -22.6174
ltibia 23.9102
lfoot -4.38069 12.0516
ltoes -15.7493
552
root 0.782572 18.1412 -20.4405 4.47208 9.50347 6.0221
lowerback 10.5548 -1.83185 -0.27892
upperback -0.235442 -2.13725 5.21712
thorax -5.96956 -0.95633 6.01062
lowerneck -20.777 -0.183643 7.11949
upperneck 16.4123 0.269943 -12.8828
head 8.56786 -0.813516 -5.58622
rclavicle 8.74653e-015 0
rhumerus -11.8501 -29.4234 -7.10977
rradius 31.4711
rwrist 1.65876
rhand -21.5158 -5.63161
rfingers 7.12502
rthumb 4.87631 -35.5555
lclavicle 8.74653e-015 0
lhumerus -22.3031 24.2797 19.1893
lradius 35.7377
lwrist 8.83192
lhand -19.3159 -3.04799
lfingers 7.12502
lthumb 7.00025 26.8163
rfemur -21.0989 -4.43125 8.12599
rtibia 30.3693
rfoot -5.19659 -18.8757
rtoes -1.41489
lfemur 2.15395 -2.35884 -22.4
ltibia 24.379
lfoot -4.03131 11.7516
ltoes -15.8213
553
root 0.73633 18.1512 -20.3734 4.39683 9.57254 6.02128
lowerback 10.5684 -1.86769 -0.199357
upperback -0.251989 -2.1732 5.22682
thorax -5.99371 -0.975469 5.98238
lowerneck -20.7453 -0.183034 7.11764
upperneck 16.4928 0.279943 -12.8833
head 8.59043 -0.808963 -5.58733
rclavicle -5.1684e-014 2.22639e-014
rhumerus -11.86 -29.2928 -7.10965
rradius 31.4906
rwrist 1.58271
rhand -21.4821 -5.71437
rfingers 7.12502
rthumb 4.90885 -35.6375
lclavicle -5.1684e-014 2.22639e-014
lhumerus -22.1927 24.2511 19.1971
lradius 35.7572
lwrist 8.91509
lhand -19.3124 -2.95734
lfingers 7.12502
lthumb 7.00356 26.9068
rfemur -20.7669 -4.4598 8.32418
rtibia 30.3549
rfoot -5.41811 -18.9167
rtoes -1.41715
lfemur 2.13729 -2.4006 -22.1872
ltibia 24.8021
lfoot -3.66414 11.4575
ltoes -15.926
